<svg width="45" height="34" viewBox="0 0 45 34" fill="none" xmlns="http://www.w3.org/2000/svg">
<path d="M33.5 17C33.5 26.1127 26.1127 33.5 17 33.5C7.8873 33.5 0.5 26.1127 0.5 17C0.5 7.8873 7.8873 0.5 17 0.5C26.1127 0.5 33.5 7.8873 33.5 17Z" stroke="url(#paint0_linear_1_60)"/>
<path d="M9.1 24V10H16.24C17.5067 10 18.6333 10.1867 19.62 10.56C20.6067 10.9333 21.44 11.44 22.12 12.08C22.8133 12.72 23.34 13.4667 23.7 14.32C24.06 15.16 24.24 16.0533 24.24 17C24.24 17.96 24.06 18.8667 23.7 19.72C23.34 20.56 22.8133 21.3 22.12 21.94C21.44 22.58 20.6 23.0867 19.6 23.46C18.6133 23.82 17.4933 24 16.24 24H9.1ZM12.5 21.68L12.04 21H16.14C16.9267 21 17.6067 20.8933 18.18 20.68C18.7533 20.4667 19.2267 20.1733 19.6 19.8C19.9733 19.4267 20.2533 19 20.44 18.52C20.6267 18.0267 20.72 17.52 20.72 17C20.72 16.48 20.6267 15.98 20.44 15.5C20.2533 15.02 19.9733 14.5933 19.6 14.22C19.2267 13.8467 18.7533 13.5533 18.18 13.34C17.6067 13.1133 16.9267 13 16.14 13H11.98L12.5 12.36V21.68ZM38.808 24L33.508 17.68L26.828 10H31.128L36.248 16.08L43.128 24H38.808ZM26.728 24L33.128 16.38L35.768 17.96L30.908 24H26.728ZM36.708 17.5L34.088 15.98L38.728 10H42.908L36.708 17.5Z" fill="#FFE607"/>
<defs>
<linearGradient id="paint0_linear_1_60" x1="29" y1="22.5" x2="31" y2="22.5" gradientUnits="userSpaceOnUse">
<stop stop-color="#FFE607"/>
<stop offset="1" stop-color="#FFE607" stop-opacity="0"/>
</linearGradient>
</defs>
</svg>
